# xmcd
#
# Track frame offsets:
#	150
#	13468
#	30226
#	40456
#	47091
#	60817
#	71193
#	91162
#	104672
#	122463
#
# Disc length: 1769 seconds
#
# Revision: 1
# Processed by: cddbd v1.5.2PL0 Copyright (c) Steve Scherf et al.
# Submitted via: EZCDAudioConverter 7.1.5.1
#
DISCID=8006e70a
DTITLE=Beny More y 11 Leyendas de La Musica Cubana - Serie de Oro CD2
DYEAR=2004
DGENRE=Latin
TTITLE0=Beny Moré - Vagar Entre Sombras
TTITLE1=Bola de Nieve - Babalu
TTITLE2=Pérez Prado - Guantanamera
TTITLE3=Alberto Beltran - Apagame la Vela
TTITLE4=Beny Moré - Como Arrullo de Palmas
TTITLE5=Miguelito Valdés - Cuando Sali de Cuba
TTITLE6=Albita Rodriguez - Habra Musica de Guajira
TTITLE7=Celia Cruz - Ay, Ay, Ay
TTITLE8=Los Guaracheros de Oriente - Alborada
TTITLE9=Beny Moré - Yiri Yiri Bom
EXTD=
EXTT0=
EXTT1=
EXTT2=
EXTT3=
EXTT4=
EXTT5=
EXTT6=
EXTT7=
EXTT8=
EXTT9=
PLAYORDER=
